<svg height="496pt" viewBox="0 -40 496 496" width="496pt" xmlns="http://www.w3.org/2000/svg"><path d="m464 256h-48c-4.425781 0-8 3.574219-8 8v80c0 4.425781 3.574219 8 8 8h48c4.425781 0 8-3.574219 8-8v-80c0-4.425781-3.574219-8-8-8zm0 0" fill="#5d9cec"/><path d="m96 336h-24c-4.425781 0-8-3.574219-8-8v-31.992188c0-4.421874 3.574219-8 8-8h24c4.425781 0 8 3.578126 8 8v31.992188c0 4.425781-3.574219 8-8 8zm-16-16h8v-15.992188h-8zm0 0" fill="#da4453"/><path d="m80 328v24h-64v-80h64zm0 0" fill="#ed5565"/><path d="m200 79.761719-24 16.238281v-24c0-35.359375 28.640625-64 64-64h48v32c17.679688 0 32 14.320312 32 32v24l-24-16.238281s-16.078125 8-44 8-52-8-52-8zm0 0" fill="#965353"/><path d="m288 40v-32h-32v48c17.679688 0 32 6.320312 32 24v2.71875c5.144531-1.589844 8-2.957031 8-2.957031l24 16.238281v-24c0-17.679688-14.320312-32-32-32zm0 0" fill="#844747"/><path d="m320 96.238281v31.761719c0 28.238281-16.320312 52.71875-40 64.480469-9.601562 4.800781-20.558594 7.519531-32 7.519531s-22.398438-2.71875-32-7.519531c-23.679688-11.761719-40-36.234375-40-64.480469v-31.761719l24-16.238281s24.078125 8 52 8 44-8 44-8zm0 0" fill="#eac6bb"/><path d="m296 80s-2.855469 1.367188-8 2.953125v45.046875c0 28.238281-16.320312 52.71875-40 64.480469-5 2.503906-10.382812 4.40625-16 5.6875 5.167969 1.175781 10.519531 1.832031 16 1.832031 11.441406 0 22.398438-2.71875 32-7.519531 23.679688-11.761719 40-36.234375 40-64.480469v-31.761719zm0 0" fill="#d3b1a9"/><path d="m72 156v4c0 30.960938 25.039062 56 56 56h80c-28.238281 0-52.71875 16.320312-64.480469 40h-15.519531c-53.039062 0-96-42.960938-96-96v-4c0-11.039062 8.960938-20 20-20s20 8.960938 20 20zm0 0" fill="#ccd1d9"/><path d="m32 24-16-24h64l-16 24zm0 0" fill="#ffce54"/><path d="m96 0v112h-96v-112h16l16 24h32l16-24zm0 0" fill="#656d78"/><path d="m496 24v72l-42-36zm0 0" fill="#edab37"/><path d="m426 60-42 36v-72zm0 0" fill="#edab37"/><path d="m496 24-56 48-56-48zm0 0" fill="#ffce54"/><path d="m440 72 14-12 42 36h-112l42-36zm0 0" fill="#f6bb42"/><path d="m464 156v4c0 53.039062-42.960938 96-96 96h-15.519531c-11.761719-23.679688-36.234375-40-64.480469-40h80c30.960938 0 56-25.039062 56-56v-4c0-11.039062 8.960938-20 20-20s20 8.960938 20 20zm0 0" fill="#ccd1d9"/><path d="m248 200c11.441406 0 22.398438-2.71875 32-7.519531v23.519531l-16 16-16-8-16 8-16-16v-23.519531c9.601562 4.800781 20.558594 7.519531 32 7.519531zm0 0" fill="#f5f7fa"/><path d="m216 216 16 16 16-8 16 8 16-16h8c28.238281 0 52.71875 16.320312 64.480469 40 4.800781 9.601562 7.519531 20.480469 7.519531 32v16c0 35.359375 28.640625 64 64 64h4c11.039062 0 20 8.960938 20 20s-8.960938 20-20 20h-4c-57.519531 0-104-46.480469-104-104v112h-144v-112c0 57.519531-46.480469 104-104 104h-4c-11.039062 0-20-8.960938-20-20s8.960938-20 20-20h4c35.359375 0 64-28.640625 64-64v-16c0-11.519531 2.71875-22.398438 7.519531-32 11.761719-23.679688 36.234375-40 64.480469-40zm0 0" fill="#e6e9ed"/><g fill="#f5f7fa"><path d="m248.238281 280c-4.421875 0-8.039062-3.574219-8.039062-8s3.535156-8 7.953125-8h.085937c4.417969 0 8 3.574219 8 8s-3.582031 8-8 8zm0 0"/><path d="m248.238281 320c-4.421875 0-8.039062-3.574219-8.039062-8s3.535156-8 7.953125-8h.085937c4.417969 0 8 3.574219 8 8s-3.582031 8-8 8zm0 0"/><path d="m248.238281 360c-4.421875 0-8.039062-3.574219-8.039062-8s3.535156-8 7.953125-8h.085937c4.417969 0 8 3.574219 8 8s-3.582031 8-8 8zm0 0"/><path d="m248.238281 400c-4.421875 0-8.039062-3.574219-8.039062-8s3.535156-8 7.953125-8h.085937c4.417969 0 8 3.574219 8 8s-3.582031 8-8 8zm0 0"/></g><path d="m440.238281 344c-4.421875 0-8.039062-3.574219-8.039062-8s3.535156-8 7.953125-8h.085937c4.417969 0 8 3.574219 8 8s-3.582031 8-8 8zm0 0" fill="#4a89dc"/><path d="m64 64h-32c-4.425781 0-8-3.574219-8-8s3.574219-8 8-8h32c4.425781 0 8 3.574219 8 8s-3.574219 8-8 8zm0 0" fill="#434a54"/><path d="m64 88h-32c-4.425781 0-8-3.574219-8-8s3.574219-8 8-8h32c4.425781 0 8 3.574219 8 8s-3.574219 8-8 8zm0 0" fill="#434a54"/></svg>