<?xml version="1.0" encoding="UTF-8"?>
<svg width="85px" height="85px" viewBox="0 0 85 85" version="1.1" xmlns="http://www.w3.org/2000/svg" xmlns:xlink="http://www.w3.org/1999/xlink">
    <!-- Generator: Sketch 59.1 (86144) - https://sketch.com -->
    <title>play_icon_large</title>
    <desc>Created with Sketch.</desc>
    <g id="Page-1" stroke="none" stroke-width="1" fill="none" fill-rule="evenodd">
        <g id="play_icon_large">
            <path d="M42.5,2.5 C64.59139,2.5 82.5,20.40861 82.5,42.5 C82.5,64.59139 64.59139,82.5 42.5,82.5 C20.40861,82.5 2.5,64.59139 2.5,42.5 C2.5,20.40861 20.40861,2.5 42.5,2.5 Z" id="Path" stroke="#101646" stroke-width="4" stroke-linecap="round" stroke-linejoin="round"></path>
            <polygon id="Path" points="0 0 85 0 85 85 0 85"></polygon>
            <polygon id="Path" points="0 0 85 0 85 85 0 85"></polygon>
            <path d="M55.73,41.55 C56.0271477,41.9985883 56.0271477,42.5814117 55.73,43.03 C55.6176513,43.255143 55.435143,43.4376513 55.21,43.55 L35.27,56.1 C35.0430035,56.2204375 34.7859778,56.2725373 34.53,56.25 C33.7257088,56.2192294 33.0807706,55.5742912 33.05,54.77 L33.05,29.77 C33.0434166,29.5062993 33.1204239,29.2472749 33.27,29.03 C33.3823487,28.804857 33.564857,28.6223487 33.79,28.51 C34.0072749,28.3604239 34.2662993,28.2834166 34.53,28.29 C34.7834907,28.2967804 35.0338779,28.3475346 35.27,28.44 L55.21,41 C55.4206731,41.1603132 55.597423,41.3608563 55.73,41.59" id="Path" fill="#101646" fill-rule="nonzero"></path>
        </g>
    </g>
</svg>